<mxfile host="app.diagrams.net" modified="2023-03-20T16:17:37.681Z" agent="5.0 (Macintosh; Intel Mac OS X 10_15_7) AppleWebKit/537.36 (KHTML, like Gecko) Chrome/111.0.0.0 Safari/537.36" etag="0HO5nlt01GVVz36-cPnp" version="21.0.8" type="github">
  <diagram name="Pagina-1" id="2gnQn5dsZddcRE8RK6tl">
    <mxGraphModel dx="2261" dy="828" grid="1" gridSize="10" guides="1" tooltips="1" connect="1" arrows="1" fold="1" page="1" pageScale="1" pageWidth="827" pageHeight="1169" math="0" shadow="0">
      <root>
        <mxCell id="0" />
        <mxCell id="1" parent="0" />
        <mxCell id="HYb9EO3i7QYgC3tbqvvC-1" value="" style="rounded=0;whiteSpace=wrap;html=1;" parent="1" vertex="1">
          <mxGeometry x="120" y="40" width="560" height="640" as="geometry" />
        </mxCell>
        <mxCell id="HYb9EO3i7QYgC3tbqvvC-2" value="&lt;b&gt;&lt;font style=&quot;font-size: 16px;&quot;&gt;OUTSOURCING HUB&lt;/font&gt;&lt;/b&gt;" style="text;html=1;align=center;verticalAlign=middle;resizable=0;points=[];autosize=1;strokeColor=none;fillColor=none;" parent="1" vertex="1">
          <mxGeometry x="324" y="50" width="180" height="30" as="geometry" />
        </mxCell>
        <mxCell id="HYb9EO3i7QYgC3tbqvvC-3" value="&amp;nbsp;Outsourcing Company" style="shape=umlActor;verticalLabelPosition=bottom;verticalAlign=top;html=1;outlineConnect=0;fontSize=16;" parent="1" vertex="1">
          <mxGeometry x="-40" y="340" width="30" height="60" as="geometry" />
        </mxCell>
        <mxCell id="1Vnhm23oymRTcUFBXv8f-1" value="&lt;span style=&quot;caret-color: rgb(0, 0, 0); font-family: Helvetica; font-size: x-small; font-style: normal; font-variant-caps: normal; font-weight: 400; letter-spacing: normal; text-align: center; text-indent: 0px; text-transform: none; word-spacing: 0px; -webkit-text-stroke-width: 0px; text-decoration: none; float: none; display: inline !important;&quot;&gt;&lt;font color=&quot;#333333&quot;&gt;SEARCH DEVELOPER&lt;/font&gt;&lt;/span&gt;" style="ellipse;whiteSpace=wrap;html=1;fillColor=#f8cecc;strokeColor=#b85450;" parent="1" vertex="1">
          <mxGeometry x="180" y="350" width="120" height="40" as="geometry" />
        </mxCell>
        <mxCell id="1Vnhm23oymRTcUFBXv8f-2" value="&lt;font style=&quot;font-size: 9px;&quot;&gt;SEND JOB&amp;nbsp;&lt;br&gt;OFFER&lt;br style=&quot;font-size: 9px;&quot;&gt;&lt;/font&gt;" style="ellipse;whiteSpace=wrap;html=1;fillColor=#dae8fc;strokeColor=#6c8ebf;fontSize=9;strokeWidth=1;fillStyle=hatch;" parent="1" vertex="1">
          <mxGeometry x="280" y="545" width="86" height="40" as="geometry" />
        </mxCell>
        <mxCell id="1Vnhm23oymRTcUFBXv8f-3" value="&lt;font style=&quot;font-size: 9px;&quot;&gt;FILTER SEARCH RESULT&lt;br style=&quot;font-size: 9px;&quot;&gt;&lt;/font&gt;" style="ellipse;whiteSpace=wrap;html=1;fillColor=#dae8fc;strokeColor=#6c8ebf;fontSize=9;strokeWidth=1;fillStyle=hatch;" parent="1" vertex="1">
          <mxGeometry x="180" y="470" width="86" height="40" as="geometry" />
        </mxCell>
        <mxCell id="1Vnhm23oymRTcUFBXv8f-5" value="&amp;lt;&amp;lt;extends&amp;gt;&amp;gt;" style="endArrow=block;endFill=0;html=1;rounded=0;dashed=1;exitX=0.5;exitY=0;exitDx=0;exitDy=0;entryX=0.5;entryY=1;entryDx=0;entryDy=0;" parent="1" source="1Vnhm23oymRTcUFBXv8f-3" target="1Vnhm23oymRTcUFBXv8f-1" edge="1">
          <mxGeometry x="-0.3333" width="160" relative="1" as="geometry">
            <mxPoint x="154.18019484660545" y="214.1421356237306" as="sourcePoint" />
            <mxPoint x="249.25" y="360.0000000000002" as="targetPoint" />
            <Array as="points" />
            <mxPoint y="1" as="offset" />
          </mxGeometry>
        </mxCell>
        <mxCell id="1Vnhm23oymRTcUFBXv8f-7" value="&amp;lt;&amp;lt;extends&amp;gt;&amp;gt;" style="endArrow=block;endFill=0;html=1;rounded=0;dashed=1;exitX=0.5;exitY=0;exitDx=0;exitDy=0;entryX=0.5;entryY=1;entryDx=0;entryDy=0;" parent="1" source="1Vnhm23oymRTcUFBXv8f-2" target="lpVb4kHJerEAl0P5-sb--3" edge="1">
          <mxGeometry x="-0.014" width="160" relative="1" as="geometry">
            <mxPoint x="515.6599999999999" y="289.27999999999975" as="sourcePoint" />
            <mxPoint x="435.75" y="400.0000000000002" as="targetPoint" />
            <Array as="points" />
            <mxPoint as="offset" />
          </mxGeometry>
        </mxCell>
        <mxCell id="1Vnhm23oymRTcUFBXv8f-8" value="&lt;font style=&quot;font-size: 9px;&quot;&gt;FAVORITE&lt;br style=&quot;font-size: 9px;&quot;&gt;&lt;/font&gt;" style="ellipse;whiteSpace=wrap;html=1;fillColor=#dae8fc;strokeColor=#6c8ebf;fontSize=9;strokeWidth=1;fillStyle=hatch;" parent="1" vertex="1">
          <mxGeometry x="450" y="530" width="80" height="40" as="geometry" />
        </mxCell>
        <mxCell id="1Vnhm23oymRTcUFBXv8f-9" value="&amp;lt;&amp;lt;extends&amp;gt;&amp;gt;" style="endArrow=block;endFill=0;html=1;rounded=0;dashed=1;exitX=0;exitY=0;exitDx=0;exitDy=0;entryX=1;entryY=0.5;entryDx=0;entryDy=0;" parent="1" source="1Vnhm23oymRTcUFBXv8f-8" target="lpVb4kHJerEAl0P5-sb--3" edge="1">
          <mxGeometry x="-0.014" width="160" relative="1" as="geometry">
            <mxPoint x="531.5000000000064" y="320" as="sourcePoint" />
            <mxPoint x="331.49999999999795" y="340" as="targetPoint" />
            <Array as="points">
              <mxPoint x="430" y="480" />
            </Array>
            <mxPoint as="offset" />
          </mxGeometry>
        </mxCell>
        <mxCell id="oLMSUlT_Yt6ROWXrSTLa-1" style="rounded=0;orthogonalLoop=1;jettySize=auto;html=1;exitX=0;exitY=0.5;exitDx=0;exitDy=0;endArrow=none;endFill=0;" parent="1" source="1Vnhm23oymRTcUFBXv8f-1" edge="1">
          <mxGeometry relative="1" as="geometry">
            <mxPoint x="20" y="360" as="targetPoint" />
            <mxPoint x="407.57359312880726" y="655.8578643762689" as="sourcePoint" />
          </mxGeometry>
        </mxCell>
        <mxCell id="lpVb4kHJerEAl0P5-sb--1" value="&amp;lt;&amp;lt;extends&amp;gt;&amp;gt;" style="endArrow=block;endFill=0;html=1;rounded=0;dashed=1;entryX=1;entryY=1;entryDx=0;entryDy=0;exitX=0.5;exitY=0;exitDx=0;exitDy=0;" parent="1" source="lpVb4kHJerEAl0P5-sb--3" target="1Vnhm23oymRTcUFBXv8f-1" edge="1">
          <mxGeometry x="-0.014" width="160" relative="1" as="geometry">
            <mxPoint x="380" y="350" as="sourcePoint" />
            <mxPoint x="300" y="357" as="targetPoint" />
            <Array as="points">
              <mxPoint x="330" y="400" />
            </Array>
            <mxPoint as="offset" />
          </mxGeometry>
        </mxCell>
        <mxCell id="lpVb4kHJerEAl0P5-sb--3" value="&lt;font style=&quot;font-size: 9px;&quot;&gt;VIEW&lt;br style=&quot;border-color: var(--border-color); font-size: 12px; color: rgb(51, 51, 51);&quot;&gt;&lt;span style=&quot;border-color: var(--border-color); color: rgb(51, 51, 51); font-size: x-small;&quot;&gt;DEVELOPER&lt;/span&gt;&lt;br style=&quot;border-color: var(--border-color); font-size: 12px; color: rgb(51, 51, 51);&quot;&gt;&lt;span style=&quot;border-color: var(--border-color); color: rgb(51, 51, 51); font-size: x-small;&quot;&gt;PROFILE&lt;/span&gt;&lt;br style=&quot;font-size: 9px;&quot;&gt;&lt;/font&gt;" style="ellipse;whiteSpace=wrap;html=1;fillColor=#dae8fc;strokeColor=#6c8ebf;fontSize=9;strokeWidth=1;fillStyle=hatch;" parent="1" vertex="1">
          <mxGeometry x="300" y="440" width="86" height="40" as="geometry" />
        </mxCell>
        <mxCell id="KCypx_9KicV_i4iQ8DU2-14" value="&lt;span style=&quot;caret-color: rgb(0, 0, 0); font-family: Helvetica; font-size: x-small; font-style: normal; font-variant-caps: normal; font-weight: 400; letter-spacing: normal; text-align: center; text-indent: 0px; text-transform: none; word-spacing: 0px; -webkit-text-stroke-width: 0px; text-decoration: none; float: none; display: inline !important;&quot;&gt;&lt;font color=&quot;#333333&quot;&gt;SEARCH PROJECT&lt;/font&gt;&lt;/span&gt;" style="ellipse;whiteSpace=wrap;html=1;fillColor=#f8cecc;strokeColor=#b85450;" vertex="1" parent="1">
          <mxGeometry x="200" y="200" width="120" height="40" as="geometry" />
        </mxCell>
        <mxCell id="KCypx_9KicV_i4iQ8DU2-16" value="&lt;font style=&quot;font-size: 9px;&quot;&gt;APPLY FOR PROJECT&lt;br style=&quot;font-size: 9px;&quot;&gt;&lt;/font&gt;" style="ellipse;whiteSpace=wrap;html=1;fillColor=#dae8fc;strokeColor=#6c8ebf;fontSize=9;strokeWidth=1;fillStyle=hatch;" vertex="1" parent="1">
          <mxGeometry x="250" y="70" width="86" height="40" as="geometry" />
        </mxCell>
        <mxCell id="KCypx_9KicV_i4iQ8DU2-17" value="&amp;lt;&amp;lt;extends&amp;gt;&amp;gt;" style="endArrow=block;endFill=0;html=1;rounded=0;dashed=1;exitX=0.5;exitY=1;exitDx=0;exitDy=0;entryX=0.5;entryY=0;entryDx=0;entryDy=0;" edge="1" parent="1" source="KCypx_9KicV_i4iQ8DU2-16" target="KCypx_9KicV_i4iQ8DU2-14">
          <mxGeometry x="-0.3333" width="160" relative="1" as="geometry">
            <mxPoint x="204.18019484660545" y="-5.85786437626939" as="sourcePoint" />
            <mxPoint x="299.25" y="140.00000000000023" as="targetPoint" />
            <Array as="points" />
            <mxPoint y="1" as="offset" />
          </mxGeometry>
        </mxCell>
        <mxCell id="KCypx_9KicV_i4iQ8DU2-18" value="&lt;font style=&quot;font-size: 9px;&quot;&gt;FAVORITE&lt;br style=&quot;font-size: 9px;&quot;&gt;&lt;/font&gt;" style="ellipse;whiteSpace=wrap;html=1;fillColor=#dae8fc;strokeColor=#6c8ebf;fontSize=9;strokeWidth=1;fillStyle=hatch;" vertex="1" parent="1">
          <mxGeometry x="530" y="200" width="80" height="40" as="geometry" />
        </mxCell>
        <mxCell id="KCypx_9KicV_i4iQ8DU2-19" value="&amp;lt;&amp;lt;extends&amp;gt;&amp;gt;" style="endArrow=block;endFill=0;html=1;rounded=0;dashed=1;exitX=0;exitY=0;exitDx=0;exitDy=0;entryX=1;entryY=0.5;entryDx=0;entryDy=0;" edge="1" parent="1" source="KCypx_9KicV_i4iQ8DU2-18" target="KCypx_9KicV_i4iQ8DU2-21">
          <mxGeometry x="-0.014" width="160" relative="1" as="geometry">
            <mxPoint x="581.5000000000064" y="100" as="sourcePoint" />
            <mxPoint x="381.49999999999795" y="120" as="targetPoint" />
            <Array as="points" />
            <mxPoint as="offset" />
          </mxGeometry>
        </mxCell>
        <mxCell id="KCypx_9KicV_i4iQ8DU2-20" value="&amp;lt;&amp;lt;extends&amp;gt;&amp;gt;" style="endArrow=block;endFill=0;html=1;rounded=0;dashed=1;entryX=1;entryY=0;entryDx=0;entryDy=0;exitX=0;exitY=1;exitDx=0;exitDy=0;" edge="1" parent="1" source="KCypx_9KicV_i4iQ8DU2-21" target="KCypx_9KicV_i4iQ8DU2-14">
          <mxGeometry x="-0.014" width="160" relative="1" as="geometry">
            <mxPoint x="430" y="130" as="sourcePoint" />
            <mxPoint x="350" y="137" as="targetPoint" />
            <Array as="points">
              <mxPoint x="380" y="180" />
            </Array>
            <mxPoint as="offset" />
          </mxGeometry>
        </mxCell>
        <mxCell id="KCypx_9KicV_i4iQ8DU2-21" value="&lt;font style=&quot;&quot;&gt;VIEW&lt;br style=&quot;border-color: var(--border-color); font-size: 12px; color: rgb(51, 51, 51);&quot;&gt;&lt;font size=&quot;1&quot; color=&quot;#333333&quot;&gt;CLIENT&lt;/font&gt;&lt;br style=&quot;border-color: var(--border-color); font-size: 12px; color: rgb(51, 51, 51);&quot;&gt;&lt;span style=&quot;font-size: x-small; border-color: var(--border-color); color: rgb(51, 51, 51);&quot;&gt;PROFILE&lt;/span&gt;&lt;br style=&quot;font-size: 9px;&quot;&gt;&lt;/font&gt;" style="ellipse;whiteSpace=wrap;html=1;fillColor=#dae8fc;strokeColor=#6c8ebf;fontSize=9;strokeWidth=1;fillStyle=hatch;" vertex="1" parent="1">
          <mxGeometry x="390" y="130" width="86" height="40" as="geometry" />
        </mxCell>
        <mxCell id="KCypx_9KicV_i4iQ8DU2-24" style="rounded=0;orthogonalLoop=1;jettySize=auto;html=1;exitX=0;exitY=0.5;exitDx=0;exitDy=0;endArrow=none;endFill=0;" edge="1" parent="1" source="KCypx_9KicV_i4iQ8DU2-14">
          <mxGeometry relative="1" as="geometry">
            <mxPoint x="20" y="360" as="targetPoint" />
            <mxPoint x="190" y="380" as="sourcePoint" />
          </mxGeometry>
        </mxCell>
      </root>
    </mxGraphModel>
  </diagram>
</mxfile>
